<svg width="592" height="94" viewBox="0 0 592 94" fill="none" xmlns="http://www.w3.org/2000/svg">
<path d="M71 79.6358V29C71 28.4477 70.5523 28 70 28H18C17.4477 28 17 28.4477 17 29V65.1176C17 65.6699 17.4477 66.1176 18 66.1176H54.2309C54.4909 66.1176 54.7407 66.2189 54.9273 66.4001L69.3035 80.3534C69.9377 80.9689 71 80.5196 71 79.6358Z" fill="#F03B52"/>
<rect y="20" width="56" height="4" rx="2" fill="#383838"/>
<rect y="32" width="56" height="4" rx="2" fill="#383838"/>
<rect y="44" width="56" height="4" rx="2" fill="#383838"/>
<rect y="56" width="30" height="4" rx="2" fill="#383838"/>
<path d="M126.333 75.7535C137.56 75.7535 146 70.2528 149.767 60.4569L140.951 57.1414C138.691 63.3956 133.567 66.7865 126.333 66.7865C116.235 66.7865 110.283 60.0801 110.283 48.6265C110.283 37.2482 116.16 30.6171 126.333 30.6171C133.491 30.6171 138.615 33.8573 140.951 40.0362L149.617 36.6454C145.774 27.0002 137.41 21.6501 126.333 21.6501C110.81 21.6501 100.863 32.2749 100.863 48.7018C100.863 65.1288 110.81 75.7535 126.333 75.7535ZM170.744 75.7535C182.198 75.7535 189.357 66.8619 189.357 56.3878C189.357 45.8384 182.198 37.0975 170.744 37.0975C159.215 37.0975 152.132 45.8384 152.132 56.3878C152.132 66.8619 159.215 75.7535 170.744 75.7535ZM170.744 67.8415C163.887 67.8415 161.175 62.4161 161.175 56.3878C161.175 50.2842 163.887 45.0095 170.744 45.0095C177.602 45.0095 180.314 50.2842 180.314 56.3878C180.314 62.4161 177.602 67.8415 170.744 67.8415ZM238.102 37.0975C233.28 37.0975 228.985 38.8306 226.121 44.4067C223.861 38.6799 219.339 37.0975 215.27 37.0975C211.578 37.0975 207.735 38.3785 205.324 42.5229V37.851H196.583L196.658 75H205.701V60.8336C205.701 53.3737 205.474 45.0095 213.085 45.0095C218.963 45.0095 219.339 51.1131 219.339 54.0519V75H228.382V60.8336C228.382 53.3737 228.08 45.0095 235.691 45.0095C241.644 45.0095 242.021 51.1131 242.021 54.0519V75H251.063V51.3392C251.063 43.8792 247.069 37.0975 238.102 37.0975ZM302.196 37.0975C297.374 37.0975 293.079 38.8306 290.215 44.4067C287.955 38.6799 283.434 37.0975 279.365 37.0975C275.672 37.0975 271.829 38.3785 269.418 42.5229V37.851H260.677L260.752 75H269.795V60.8336C269.795 53.3737 269.569 45.0095 277.179 45.0095C283.057 45.0095 283.434 51.1131 283.434 54.0519V75H292.476V60.8336C292.476 53.3737 292.175 45.0095 299.785 45.0095C305.738 45.0095 306.115 51.1131 306.115 54.0519V75H315.157V51.3392C315.157 43.8792 311.163 37.0975 302.196 37.0975ZM356.419 55.9357C356.419 45.6124 350.843 37.0975 339.314 37.0975C326.956 37.0975 321.682 46.8934 321.682 56.6139C321.682 66.5605 327.107 75.7535 339.917 75.7535C346.171 75.7535 351.069 73.5683 355.138 69.0471L348.884 63.5464C346.322 66.4851 343.308 67.5401 339.992 67.5401C334.115 67.5401 331.101 64.2999 330.724 59.4019H356.193C356.344 58.1963 356.419 57.066 356.419 55.9357ZM330.649 52.6202C331.025 48.7772 333.587 44.6328 339.239 44.6328C344.137 44.6328 347.754 47.6469 347.754 52.6202H330.649ZM384.116 37.0975C379.595 37.0975 375.525 38.6045 372.888 42.1461V37.851H363.846V75H372.888V60.1555C372.888 53.5244 372.888 45.0095 381.328 45.0095C388.185 45.0095 388.185 50.7364 388.185 53.2984V75H397.227V51.0378C397.227 42.2215 392.48 37.0975 384.116 37.0975ZM426.785 45.0095V37.851H417.517V22.479L408.475 29.1854V37.851H402.446V45.0095H408.475V64.6013C408.475 72.5134 413.749 75.7535 420.004 75.7535C422.264 75.7535 424.525 75.3768 426.785 74.6232V67.3894C425.128 67.9168 423.545 68.2182 422.264 68.2182C419.326 68.2182 417.517 66.8619 417.517 63.9231V45.0095H426.785ZM449.323 37.0975C442.541 37.0975 437.041 39.7348 432.595 45.0849L439.15 50.5856C441.863 46.9687 445.405 45.0095 449.172 45.0095C453.467 45.0095 456.18 47.4962 456.18 51.5652V52.6202H446.912C442.692 52.6202 439.527 53.1476 437.041 54.2779C433.424 55.9357 431.464 59.2512 431.464 63.6217C431.464 70.7049 437.041 75.7535 444.877 75.7535C449.775 75.7535 453.995 73.6436 456.18 70.1774L456.934 75H465.223V51.5652C465.223 42.5982 459.119 37.0975 449.323 37.0975ZM446.309 68.0675C442.692 68.0675 440.507 66.4098 440.507 63.7724C440.507 62.4161 441.034 61.3611 442.014 60.6829C443.219 59.7787 445.028 59.4019 448.117 59.4019H456.18C456.18 64.2245 451.734 68.0675 446.309 68.0675ZM494.338 45.0095V37.851H485.07V22.479L476.027 29.1854V37.851H469.999V45.0095H476.027V64.6013C476.027 72.5134 481.302 75.7535 487.556 75.7535C489.817 75.7535 492.078 75.3768 494.338 74.6232V67.3894C492.68 67.9168 491.098 68.2182 489.817 68.2182C486.878 68.2182 485.07 66.8619 485.07 63.9231V45.0095H494.338ZM502.037 30.8432H511.531V22.479H502.037V30.8432ZM502.263 75H511.305V37.851H502.263V75ZM531.331 75H538.791L553.937 37.851H544.141L535.023 63.2449L526.056 37.851H516.185L531.331 75ZM589.395 55.9357C589.395 45.6124 583.819 37.0975 572.29 37.0975C559.932 37.0975 554.658 46.8934 554.658 56.6139C554.658 66.5605 560.083 75.7535 572.893 75.7535C579.147 75.7535 584.045 73.5683 588.114 69.0471L581.86 63.5464C579.298 66.4851 576.284 67.5401 572.968 67.5401C567.091 67.5401 564.077 64.2999 563.7 59.4019H589.169C589.32 58.1963 589.395 57.066 589.395 55.9357ZM563.625 52.6202C564.001 48.7772 566.563 44.6328 572.215 44.6328C577.113 44.6328 580.73 47.6469 580.73 52.6202H563.625Z" fill="black"/>
</svg>
