<svg width="129" height="15" viewBox="0 0 129 15" fill="none" xmlns="http://www.w3.org/2000/svg">
<path d="M11.76 6.64H14.16C13.88 2.96 11.12 0.4 7.28 0.4C3.28 0.4 0.4 3.26 0.4 7.3C0.4 11.36 3.28 14.2 7.28 14.2C11.12 14.2 13.88 11.68 14.16 7.96H11.76C11.52 10.44 9.8 12 7.28 12C4.56 12 2.78 10.14 2.78 7.3C2.78 4.46 4.56 2.6 7.28 2.6C9.8 2.6 11.5 4.16 11.76 6.64ZM20.1508 14.2C23.1908 14.2 25.3508 12.06 25.3508 9C25.3508 5.96 23.1908 3.8 20.1508 3.8C17.1108 3.8 14.9508 5.96 14.9508 9C14.9508 12.06 17.1108 14.2 20.1508 14.2ZM20.1508 12.08C18.3908 12.08 17.2308 10.86 17.2308 9C17.2308 7.14 18.3908 5.92 20.1508 5.92C21.8908 5.92 23.0308 7.14 23.0308 9C23.0308 10.86 21.8908 12.08 20.1508 12.08ZM26.3627 14H28.6827V7.88C28.6827 6.72 29.4427 5.92 30.6427 5.92C31.8427 5.92 32.6027 6.72 32.6027 7.88V14H34.8827V7.88C34.8827 6.72 35.6427 5.92 36.8627 5.92C38.0627 5.92 38.8027 6.72 38.8027 7.88V14H41.1227V7.88C41.1227 5.48 39.3427 3.8 36.8627 3.8C35.6227 3.8 34.5627 4.22 33.8027 4.94C33.1027 4.22 32.1427 3.8 30.9827 3.8C30.0627 3.8 29.2827 4.12 28.6827 4.7V4H26.3627V14ZM42.3588 14H44.6788V7.88C44.6788 6.72 45.4388 5.92 46.6388 5.92C47.8388 5.92 48.5988 6.72 48.5988 7.88V14H50.8788V7.88C50.8788 6.72 51.6388 5.92 52.8588 5.92C54.0588 5.92 54.7988 6.72 54.7988 7.88V14H57.1188V7.88C57.1188 5.48 55.3388 3.8 52.8588 3.8C51.6188 3.8 50.5588 4.22 49.7988 4.94C49.0988 4.22 48.1388 3.8 46.9788 3.8C46.0588 3.8 45.2788 4.12 44.6788 4.7V4H42.3588V14ZM68.5148 9C68.5148 5.96 66.3548 3.8 63.3148 3.8C60.2748 3.8 58.1148 5.96 58.1148 9C58.1148 12.06 60.2748 14.2 63.3148 14.2C65.5548 14.2 67.5148 13.08 68.0748 11.18H65.5148C65.0148 11.92 64.2148 12.16 63.3148 12.16C61.8348 12.16 60.7948 11.3 60.4748 9.88H68.4348C68.4748 9.6 68.5148 9.3 68.5148 9ZM63.3148 5.84C64.6948 5.84 65.7148 6.62 66.0548 7.92H60.5348C60.8948 6.62 61.9148 5.84 63.3148 5.84ZM69.5072 14H71.8272V8C71.8272 6.76 72.6272 5.92 73.9072 5.92C75.1272 5.92 75.9672 6.76 75.9672 8V14H78.2672V8C78.2672 5.54 76.6072 3.8 74.2472 3.8C73.2872 3.8 72.4472 4.14 71.8272 4.76V4H69.5072V14ZM85.3194 4H82.2394V0.6H79.9594V4H78.8594V6.12H79.9594V10.46C79.9594 12.8 81.1194 14 83.5194 14H85.3194V11.88H83.6794C82.7194 11.88 82.2394 11.4 82.2394 10.46V6.12H85.3194V4ZM90.7953 14.2C91.9353 14.2 92.9153 13.84 93.6753 13.16V14H95.9953V4H93.6753V4.84C92.9153 4.18 91.9353 3.8 90.7953 3.8C87.7553 3.8 85.5953 5.96 85.5953 9C85.5953 12.06 87.7553 14.2 90.7953 14.2ZM90.7953 12.08C89.0353 12.08 87.8753 10.86 87.8753 9C87.8753 7.14 89.0353 5.92 90.7953 5.92C92.5353 5.92 93.6753 7.14 93.6753 9C93.6753 10.86 92.5353 12.08 90.7953 12.08ZM103.601 4H100.521V0.6H98.2406V4H97.1406V6.12H98.2406V10.46C98.2406 12.8 99.4006 14 101.801 14H103.601V11.88H101.961C101.001 11.88 100.521 11.4 100.521 10.46V6.12H103.601V4ZM104.722 2.8H107.042V0.6H104.722V2.8ZM104.722 14H107.042V4H104.722V14ZM117.996 4H115.516L112.836 10.98L110.156 4H107.676L111.636 14H114.036L117.996 4ZM128.105 9C128.105 5.96 125.945 3.8 122.905 3.8C119.865 3.8 117.705 5.96 117.705 9C117.705 12.06 119.865 14.2 122.905 14.2C125.145 14.2 127.105 13.08 127.665 11.18H125.105C124.605 11.92 123.805 12.16 122.905 12.16C121.425 12.16 120.385 11.3 120.065 9.88H128.025C128.065 9.6 128.105 9.3 128.105 9ZM122.905 5.84C124.285 5.84 125.305 6.62 125.645 7.92H120.125C120.485 6.62 121.505 5.84 122.905 5.84Z" fill="#E23A4F"/>
</svg>
