<svg width="100" height="100" viewBox="0 0 100 100" fill="none" xmlns="http://www.w3.org/2000/svg">
<path d="M86 78.6358V28C86 27.4477 85.5523 27 85 27H33C32.4477 27 32 27.4477 32 28V64.1176C32 64.6699 32.4477 65.1176 33 65.1176H69.2309C69.4909 65.1176 69.7407 65.2189 69.9273 65.4001L84.3035 79.3534C84.9377 79.9689 86 79.5196 86 78.6358Z" fill="#F03B52"/>
<rect x="15" y="19" width="56" height="4" rx="2" fill="#383838"/>
<rect x="15" y="31" width="56" height="4" rx="2" fill="#383838"/>
<rect x="15" y="43" width="56" height="4" rx="2" fill="#383838"/>
<rect x="15" y="55" width="30" height="4" rx="2" fill="#383838"/>
</svg>
